<?xml version="1.0" standalone="no"?>
<!DOCTYPE svg PUBLIC "-//W3C//DTD SVG 20010904//EN"
 "http://www.w3.org/TR/2001/REC-SVG-20010904/DTD/svg10.dtd">
<svg version="1.0" xmlns="http://www.w3.org/2000/svg"
 width="640.000000pt" height="640.000000pt" viewBox="0 0 640.000000 640.000000"
 preserveAspectRatio="xMidYMid meet">
<metadata>
Created by potrace 1.14, written by Peter Selinger 2001-2017
</metadata>
<g transform="translate(0.000000,640.000000) scale(0.100000,-0.100000)"
fill="#000000" stroke="none">
<path d="M1515 6385 c-33 -7 -63 -11 -67 -8 -5 2 -8 -1 -8 -6 0 -6 -9 -11 -20
-11 -12 0 -34 -7 -50 -15 -17 -9 -32 -15 -35 -14 -9 1 -97 -43 -140 -70 -86
-55 -165 -125 -232 -204 -36 -43 -93 -126 -93 -136 0 -5 -7 -14 -15 -21 -8 -6
-14 -15 -13 -18 1 -4 -10 -32 -24 -62 -41 -91 -58 -149 -78 -270 -9 -58 -7
-3266 2 -3310 3 -14 9 -46 12 -70 3 -25 8 -56 11 -70 3 -14 7 -39 9 -56 11
-80 92 -370 125 -449 63 -150 92 -213 130 -285 54 -105 140 -244 152 -248 5
-2 9 -8 9 -13 0 -9 23 -43 82 -120 38 -49 101 -122 163 -188 93 -98 84 -89
151 -146 32 -27 65 -57 74 -65 25 -24 149 -114 225 -163 199 -127 475 -248
670 -292 6 -2 28 -7 50 -13 57 -16 162 -35 193 -35 6 0 12 -3 12 -6 0 -22 526
-19 655 4 17 3 46 8 65 11 19 4 45 8 57 9 11 2 30 6 41 9 11 4 30 9 43 11 12
2 47 12 78 21 31 10 62 18 69 20 64 12 438 177 462 204 3 3 15 11 28 18 12 6
32 18 45 25 12 6 24 14 27 17 3 3 19 14 35 24 33 21 173 126 220 165 116 98
415 428 415 459 0 5 6 15 14 21 50 42 246 417 301 576 15 44 30 87 33 95 3 8
6 17 7 20 1 3 5 12 8 20 11 26 64 253 76 325 12 71 15 91 28 200 10 79 10
3215 0 3280 -6 43 -17 91 -32 145 -41 150 -150 329 -269 443 -77 73 -226 169
-301 193 -5 2 -48 16 -95 31 l-85 28 -1580 2 c-1269 1 -1592 -1 -1640 -12z
m3089 -1020 c61 -31 128 -97 150 -149 35 -85 36 -93 35 -810 0 -669 -1 -714
-19 -763 -24 -67 -62 -120 -116 -162 -87 -66 2 -63 -1509 -63 -1296 -1 -1373
0 -1425 17 -29 10 -59 22 -64 26 -88 69 -140 148 -152 230 -13 94 -11 1397 3
1452 27 108 112 203 214 237 45 16 166 17 1437 16 l1387 -1 59 -30z m-1408
-2603 c47 -34 47 -34 47 -942 0 -778 -1 -858 -17 -887 -44 -87 -175 -74 -202
19 -6 20 -9 377 -9 888 1 810 2 857 19 886 36 61 106 77 162 36z m-683 -357
c50 -32 51 -43 52 -570 0 -269 -3 -503 -8 -520 -13 -42 -64 -85 -102 -85 -40
0 -93 33 -106 68 -8 18 -11 193 -12 533 0 500 0 507 21 541 12 19 32 39 44 45
31 13 81 8 111 -12z m1342 9 c45 -21 66 -63 66 -132 0 -31 0 -62 -1 -67 -1 -6
-1 -12 0 -15 6 -16 4 -129 -2 -148 -4 -13 -5 -21 0 -19 9 6 8 -444 -1 -467 -4
-9 -3 -15 1 -12 8 5 7 -183 -1 -226 -12 -62 -59 -100 -117 -96 -39 3 -88 44
-98 83 -5 17 -8 255 -7 530 1 467 2 502 19 528 33 49 89 66 141 41z"/>
</g>
</svg>
